<svg width="14" height="14" viewBox="0 0 14 14" fill="none" xmlns="http://www.w3.org/2000/svg">
<g clip-path="url(#clip0_1_483)">
<path d="M11.6667 5.25H6.41667C5.77233 5.25 5.25 5.77233 5.25 6.41667V11.6667C5.25 12.311 5.77233 12.8333 6.41667 12.8333H11.6667C12.311 12.8333 12.8333 12.311 12.8333 11.6667V6.41667C12.8333 5.77233 12.311 5.25 11.6667 5.25Z" stroke="black" stroke-width="0.583333" stroke-linecap="round" stroke-linejoin="round"/>
<path d="M2.91663 8.75008H2.33329C2.02387 8.75008 1.72713 8.62716 1.50833 8.40837C1.28954 8.18958 1.16663 7.89283 1.16663 7.58341V2.33341C1.16663 2.024 1.28954 1.72725 1.50833 1.50846C1.72713 1.28966 2.02387 1.16675 2.33329 1.16675H7.58329C7.89271 1.16675 8.18946 1.28966 8.40825 1.50846C8.62704 1.72725 8.74996 2.024 8.74996 2.33341V2.91675" stroke="black" stroke-width="0.583333" stroke-linecap="round" stroke-linejoin="round"/>
</g>
<defs>
<clipPath id="clip0_1_483">
<rect width="14" height="14" fill="white"/>
</clipPath>
</defs>
</svg>
